<mxfile host="app.diagrams.net" modified="2024-04-26T13:37:47.035Z" agent="Mozilla/5.0 (X11; Linux x86_64; rv:125.0) Gecko/20100101 Firefox/125.0" etag="tqlrjxvAoeh_bz3aPFCe" version="24.3.0" type="device">
  <diagram name="Page-1" id="f6FDDPuUjQH8AuFrgQYx">
    <mxGraphModel dx="2049" dy="1084" grid="1" gridSize="10" guides="1" tooltips="1" connect="1" arrows="1" fold="1" page="1" pageScale="1" pageWidth="850" pageHeight="1100" math="0" shadow="0">
      <root>
        <mxCell id="0" />
        <mxCell id="1" parent="0" />
        <mxCell id="xh_CueouXMLD4YrdwbHa-37" value="" style="rounded=1;whiteSpace=wrap;html=1;" vertex="1" parent="1">
          <mxGeometry x="116.11" y="1380" width="813.89" height="530" as="geometry" />
        </mxCell>
        <mxCell id="xh_CueouXMLD4YrdwbHa-44" style="edgeStyle=orthogonalEdgeStyle;rounded=0;orthogonalLoop=1;jettySize=auto;html=1;entryX=0;entryY=0.75;entryDx=0;entryDy=0;" edge="1" parent="1" source="xh_CueouXMLD4YrdwbHa-5" target="xh_CueouXMLD4YrdwbHa-40">
          <mxGeometry relative="1" as="geometry">
            <Array as="points">
              <mxPoint x="60" y="490" />
              <mxPoint x="60" y="1635" />
            </Array>
          </mxGeometry>
        </mxCell>
        <mxCell id="xh_CueouXMLD4YrdwbHa-5" value="" style="rounded=1;whiteSpace=wrap;html=1;" vertex="1" parent="1">
          <mxGeometry x="110" y="310" width="560" height="360" as="geometry" />
        </mxCell>
        <mxCell id="xh_CueouXMLD4YrdwbHa-13" style="edgeStyle=orthogonalEdgeStyle;rounded=0;orthogonalLoop=1;jettySize=auto;html=1;exitX=0.5;exitY=1;exitDx=0;exitDy=0;entryX=0.5;entryY=0;entryDx=0;entryDy=0;startArrow=classic;startFill=1;" edge="1" parent="1" source="xh_CueouXMLD4YrdwbHa-1" target="xh_CueouXMLD4YrdwbHa-6">
          <mxGeometry relative="1" as="geometry" />
        </mxCell>
        <mxCell id="xh_CueouXMLD4YrdwbHa-1" value="" style="rounded=1;whiteSpace=wrap;html=1;" vertex="1" parent="1">
          <mxGeometry x="370" y="330" width="270" height="120" as="geometry" />
        </mxCell>
        <mxCell id="xh_CueouXMLD4YrdwbHa-3" value="NAP-VANETZA" style="rounded=1;whiteSpace=wrap;html=1;" vertex="1" parent="1">
          <mxGeometry x="510" y="340" width="120" height="100" as="geometry" />
        </mxCell>
        <mxCell id="xh_CueouXMLD4YrdwbHa-4" value="MQTT Broker" style="rounded=1;whiteSpace=wrap;html=1;" vertex="1" parent="1">
          <mxGeometry x="380" y="380" width="120" height="60" as="geometry" />
        </mxCell>
        <mxCell id="xh_CueouXMLD4YrdwbHa-18" style="edgeStyle=orthogonalEdgeStyle;rounded=0;orthogonalLoop=1;jettySize=auto;html=1;" edge="1" parent="1" source="xh_CueouXMLD4YrdwbHa-6">
          <mxGeometry relative="1" as="geometry">
            <mxPoint x="830" y="580" as="targetPoint" />
          </mxGeometry>
        </mxCell>
        <mxCell id="xh_CueouXMLD4YrdwbHa-6" value="BATMAN" style="rounded=1;whiteSpace=wrap;html=1;" vertex="1" parent="1">
          <mxGeometry x="370" y="520" width="270" height="120" as="geometry" />
        </mxCell>
        <mxCell id="xh_CueouXMLD4YrdwbHa-16" style="edgeStyle=orthogonalEdgeStyle;rounded=0;orthogonalLoop=1;jettySize=auto;html=1;entryX=0.5;entryY=1;entryDx=0;entryDy=0;startArrow=openThin;startFill=0;" edge="1" parent="1" source="xh_CueouXMLD4YrdwbHa-10" target="xh_CueouXMLD4YrdwbHa-11">
          <mxGeometry relative="1" as="geometry" />
        </mxCell>
        <mxCell id="xh_CueouXMLD4YrdwbHa-10" value="" style="sketch=0;aspect=fixed;pointerEvents=1;shadow=0;dashed=0;html=1;strokeColor=none;labelPosition=center;verticalLabelPosition=bottom;verticalAlign=top;align=center;fillColor=#00188D;shape=mxgraph.azure.computer" vertex="1" parent="1">
          <mxGeometry x="153.89" y="550" width="72.22" height="65" as="geometry" />
        </mxCell>
        <mxCell id="xh_CueouXMLD4YrdwbHa-15" value="JSON" style="edgeStyle=orthogonalEdgeStyle;rounded=0;orthogonalLoop=1;jettySize=auto;html=1;entryX=0;entryY=0.5;entryDx=0;entryDy=0;startArrow=classic;startFill=1;" edge="1" parent="1" source="xh_CueouXMLD4YrdwbHa-11" target="xh_CueouXMLD4YrdwbHa-1">
          <mxGeometry relative="1" as="geometry" />
        </mxCell>
        <mxCell id="xh_CueouXMLD4YrdwbHa-11" value="controller.py" style="rounded=1;whiteSpace=wrap;html=1;" vertex="1" parent="1">
          <mxGeometry x="130" y="330" width="120" height="120" as="geometry" />
        </mxCell>
        <mxCell id="xh_CueouXMLD4YrdwbHa-17" value="&lt;div&gt;MQTT&lt;/div&gt;" style="rounded=0;orthogonalLoop=1;jettySize=auto;html=1;entryX=0.98;entryY=0.02;entryDx=0;entryDy=0;entryPerimeter=0;exitX=0.019;exitY=0.933;exitDx=0;exitDy=0;exitPerimeter=0;startArrow=classic;startFill=1;" edge="1" parent="1" source="xh_CueouXMLD4YrdwbHa-1" target="xh_CueouXMLD4YrdwbHa-10">
          <mxGeometry relative="1" as="geometry">
            <Array as="points" />
          </mxGeometry>
        </mxCell>
        <mxCell id="xh_CueouXMLD4YrdwbHa-19" value="" style="verticalLabelPosition=bottom;shadow=0;dashed=0;align=center;html=1;verticalAlign=top;shape=mxgraph.electrical.radio.aerial_-_antenna_1;" vertex="1" parent="1">
          <mxGeometry x="790" y="530" width="80" height="100" as="geometry" />
        </mxCell>
        <mxCell id="xh_CueouXMLD4YrdwbHa-20" value="OBU" style="text;html=1;align=center;verticalAlign=middle;whiteSpace=wrap;rounded=0;" vertex="1" parent="1">
          <mxGeometry x="410" y="341" width="60" height="30" as="geometry" />
        </mxCell>
        <mxCell id="xh_CueouXMLD4YrdwbHa-21" value="" style="shape=image;html=1;verticalAlign=top;verticalLabelPosition=bottom;labelBackgroundColor=#ffffff;imageAspect=0;aspect=fixed;image=https://cdn0.iconfinder.com/data/icons/social-media-2104/24/social_media_social_media_logo_docker-128.png" vertex="1" parent="1">
          <mxGeometry x="380" y="340" width="32" height="32" as="geometry" />
        </mxCell>
        <mxCell id="xh_CueouXMLD4YrdwbHa-43" style="edgeStyle=orthogonalEdgeStyle;rounded=0;orthogonalLoop=1;jettySize=auto;html=1;entryX=0;entryY=0.25;entryDx=0;entryDy=0;" edge="1" parent="1" source="xh_CueouXMLD4YrdwbHa-22" target="xh_CueouXMLD4YrdwbHa-40">
          <mxGeometry relative="1" as="geometry">
            <Array as="points">
              <mxPoint x="100" y="940" />
              <mxPoint x="100" y="1485" />
            </Array>
          </mxGeometry>
        </mxCell>
        <mxCell id="xh_CueouXMLD4YrdwbHa-22" value="" style="rounded=1;whiteSpace=wrap;html=1;" vertex="1" parent="1">
          <mxGeometry x="120" y="760" width="560" height="360" as="geometry" />
        </mxCell>
        <mxCell id="xh_CueouXMLD4YrdwbHa-23" style="edgeStyle=orthogonalEdgeStyle;rounded=0;orthogonalLoop=1;jettySize=auto;html=1;exitX=0.5;exitY=1;exitDx=0;exitDy=0;entryX=0.5;entryY=0;entryDx=0;entryDy=0;startArrow=classic;startFill=1;" edge="1" parent="1" source="xh_CueouXMLD4YrdwbHa-24" target="xh_CueouXMLD4YrdwbHa-28">
          <mxGeometry relative="1" as="geometry" />
        </mxCell>
        <mxCell id="xh_CueouXMLD4YrdwbHa-24" value="" style="rounded=1;whiteSpace=wrap;html=1;" vertex="1" parent="1">
          <mxGeometry x="380" y="780" width="270" height="120" as="geometry" />
        </mxCell>
        <mxCell id="xh_CueouXMLD4YrdwbHa-25" value="NAP-VANETZA" style="rounded=1;whiteSpace=wrap;html=1;" vertex="1" parent="1">
          <mxGeometry x="520" y="790" width="120" height="100" as="geometry" />
        </mxCell>
        <mxCell id="xh_CueouXMLD4YrdwbHa-26" value="MQTT Broker" style="rounded=1;whiteSpace=wrap;html=1;" vertex="1" parent="1">
          <mxGeometry x="390" y="830" width="120" height="60" as="geometry" />
        </mxCell>
        <mxCell id="xh_CueouXMLD4YrdwbHa-27" style="edgeStyle=orthogonalEdgeStyle;rounded=0;orthogonalLoop=1;jettySize=auto;html=1;" edge="1" parent="1" source="xh_CueouXMLD4YrdwbHa-28">
          <mxGeometry relative="1" as="geometry">
            <mxPoint x="840" y="1030" as="targetPoint" />
          </mxGeometry>
        </mxCell>
        <mxCell id="xh_CueouXMLD4YrdwbHa-28" value="BATMAN" style="rounded=1;whiteSpace=wrap;html=1;" vertex="1" parent="1">
          <mxGeometry x="380" y="970" width="270" height="120" as="geometry" />
        </mxCell>
        <mxCell id="xh_CueouXMLD4YrdwbHa-29" style="edgeStyle=orthogonalEdgeStyle;rounded=0;orthogonalLoop=1;jettySize=auto;html=1;entryX=0.5;entryY=1;entryDx=0;entryDy=0;startArrow=openThin;startFill=0;" edge="1" parent="1" source="xh_CueouXMLD4YrdwbHa-30" target="xh_CueouXMLD4YrdwbHa-32">
          <mxGeometry relative="1" as="geometry" />
        </mxCell>
        <mxCell id="xh_CueouXMLD4YrdwbHa-30" value="" style="sketch=0;aspect=fixed;pointerEvents=1;shadow=0;dashed=0;html=1;strokeColor=none;labelPosition=center;verticalLabelPosition=bottom;verticalAlign=top;align=center;fillColor=#00188D;shape=mxgraph.azure.computer" vertex="1" parent="1">
          <mxGeometry x="163.88999999999987" y="1000" width="72.22" height="65" as="geometry" />
        </mxCell>
        <mxCell id="xh_CueouXMLD4YrdwbHa-31" value="JSON" style="edgeStyle=orthogonalEdgeStyle;rounded=0;orthogonalLoop=1;jettySize=auto;html=1;entryX=0;entryY=0.5;entryDx=0;entryDy=0;" edge="1" parent="1" source="xh_CueouXMLD4YrdwbHa-32" target="xh_CueouXMLD4YrdwbHa-24">
          <mxGeometry relative="1" as="geometry" />
        </mxCell>
        <mxCell id="xh_CueouXMLD4YrdwbHa-32" value="controller.py" style="rounded=1;whiteSpace=wrap;html=1;" vertex="1" parent="1">
          <mxGeometry x="140" y="780" width="120" height="120" as="geometry" />
        </mxCell>
        <mxCell id="xh_CueouXMLD4YrdwbHa-33" value="&lt;div&gt;MQTT&lt;/div&gt;" style="rounded=0;orthogonalLoop=1;jettySize=auto;html=1;entryX=0.98;entryY=0.02;entryDx=0;entryDy=0;entryPerimeter=0;exitX=0.019;exitY=0.933;exitDx=0;exitDy=0;exitPerimeter=0;startArrow=classic;startFill=1;" edge="1" parent="1" source="xh_CueouXMLD4YrdwbHa-24" target="xh_CueouXMLD4YrdwbHa-30">
          <mxGeometry relative="1" as="geometry">
            <Array as="points" />
          </mxGeometry>
        </mxCell>
        <mxCell id="xh_CueouXMLD4YrdwbHa-34" value="" style="verticalLabelPosition=bottom;shadow=0;dashed=0;align=center;html=1;verticalAlign=top;shape=mxgraph.electrical.radio.aerial_-_antenna_1;" vertex="1" parent="1">
          <mxGeometry x="800" y="980" width="80" height="100" as="geometry" />
        </mxCell>
        <mxCell id="xh_CueouXMLD4YrdwbHa-35" value="RSU" style="text;html=1;align=center;verticalAlign=middle;whiteSpace=wrap;rounded=0;" vertex="1" parent="1">
          <mxGeometry x="420" y="791" width="60" height="30" as="geometry" />
        </mxCell>
        <mxCell id="xh_CueouXMLD4YrdwbHa-36" value="" style="shape=image;html=1;verticalAlign=top;verticalLabelPosition=bottom;labelBackgroundColor=#ffffff;imageAspect=0;aspect=fixed;image=https://cdn0.iconfinder.com/data/icons/social-media-2104/24/social_media_social_media_logo_docker-128.png" vertex="1" parent="1">
          <mxGeometry x="390" y="790" width="32" height="32" as="geometry" />
        </mxCell>
        <mxCell id="xh_CueouXMLD4YrdwbHa-53" style="edgeStyle=orthogonalEdgeStyle;rounded=0;orthogonalLoop=1;jettySize=auto;html=1;exitX=1;exitY=0.75;exitDx=0;exitDy=0;entryX=0;entryY=0.5;entryDx=0;entryDy=0;" edge="1" parent="1" source="xh_CueouXMLD4YrdwbHa-40" target="xh_CueouXMLD4YrdwbHa-45">
          <mxGeometry relative="1" as="geometry">
            <Array as="points">
              <mxPoint x="490" y="1645" />
            </Array>
          </mxGeometry>
        </mxCell>
        <mxCell id="xh_CueouXMLD4YrdwbHa-40" value="Controller" style="rounded=1;whiteSpace=wrap;html=1;" vertex="1" parent="1">
          <mxGeometry x="153.89" y="1420" width="206" height="300" as="geometry" />
        </mxCell>
        <mxCell id="xh_CueouXMLD4YrdwbHa-45" value="dashboard" style="rounded=1;whiteSpace=wrap;html=1;" vertex="1" parent="1">
          <mxGeometry x="490" y="1405" width="420" height="470" as="geometry" />
        </mxCell>
        <mxCell id="xh_CueouXMLD4YrdwbHa-54" value="&lt;div align=&quot;left&quot;&gt;ENDPOINTS:&lt;/div&gt;&lt;div align=&quot;left&quot;&gt;/pi?type=(OBU/RSU) [POST]&lt;/div&gt;&lt;div align=&quot;left&quot;&gt;&lt;br&gt;&lt;/div&gt;" style="text;html=1;align=left;verticalAlign=middle;whiteSpace=wrap;rounded=0;" vertex="1" parent="1">
          <mxGeometry x="166.11" y="1740" width="183.89" height="140" as="geometry" />
        </mxCell>
      </root>
    </mxGraphModel>
  </diagram>
</mxfile>
